<svg class="logo" data-name="Layer 1" xmlns="http://www.w3.org/2000/svg" viewBox="0 0 683.83 139.71">

  <g id="letter-a" class="letter" data-name="Group 1988">
    <g id="Group_1987" data-name="Group 1987">
      <path id="Path_21603" data-name="Path 21603" class="fill" d="M79.03,98.99l4.17,16.05h17.09l-11.01-42.38,9.28-35.73h-17.09l-2.44,9.4c-14.54-19.4-42.06-23.34-61.46-8.8C-1.83,52.07-5.77,79.58,8.77,98.99c14.54,19.4,42.06,23.34,61.46,8.8,3.34-2.5,6.3-5.46,8.8-8.8h0Zm-8.61-19.51c-3.77,14.63-18.68,23.44-33.31,19.67-14.63-3.77-23.44-18.68-19.67-33.31s18.68-23.44,33.31-19.67c9.63,2.48,17.16,9.99,19.66,19.62h0s1.78,6.87,1.78,6.87l-1.76,6.8"></path>
    </g>
  </g>
  <path id="letter-p" class="letter fill" d="M203.67,28.75c-10.6,0-20.98,3.77-29.25,9.9v-1.77h-16.55v102.83h16.55v-33.06c8.27,6.13,18.66,9.9,29.25,9.9h0c24.25,0,43.9-19.66,43.9-43.9s-19.65-43.9-43.9-43.9Zm0,71.26c-13.01,0-25.9-8.73-29.25-19.63v-15.46c3.36-10.9,16.24-19.63,29.25-19.63,15.08,.02,27.3,12.24,27.32,27.32,.02,15.11-12.21,27.37-27.32,27.39Z"></path>
  <g id="letter-o" class="letter" data-name="Group 1992">
    <path id="Path_21605" data-name="Path 21605" class="fill" d="M350.62,116.55c-24.25,0-43.9-19.65-43.9-43.9s19.65-43.9,43.9-43.9,43.9,19.65,43.9,43.9h0c-.03,24.23-19.67,43.87-43.9,43.9Zm0-70.36c-14.61,0-26.46,11.85-26.46,26.46,0,14.61,11.85,26.46,26.46,26.46,14.61,0,26.46-11.85,26.46-26.46-.02-14.61-11.85-26.44-26.46-26.46Z"></path>
  </g>
  <g id="letter-l" class="letter" data-name="Group 1993">
    <rect id="Rectangle_2041" data-name="Rectangle 2041" class="fill" x="452.73" y="1.5" width="16.55" height="113.55"></rect>
  </g>
  <g id="letter-i" class="letter">
    <rect class="fill" x="544.81" y="36.86" width="16.55" height="78.19"></rect>
    <circle class="fill" cx="553.08" cy="11.25" r="11.25" transform="translate(252.74 475.81) rotate(-58.28)"></circle>
  </g>
  <g id="letter-x" class="letter" data-name="Group 1997">
    <path id="Path_21606" data-name="Path 21606" class="fill" d="M680.04,37.03l-20.62,35.64,24.42,42.39h-18.12l-15.24-26.24-15.17,26.24h-18.28l24.49-42.39-20.55-35.64h18.12l11.38,19.49,11.3-19.49h18.27Z"></path>
  </g>
</svg>